<?xml version="1.0" encoding="UTF-8" standalone="no"?>
<!-- Created with Inkscape (http://www.inkscape.org/) -->

<svg
   xmlns:dc="http://purl.org/dc/elements/1.1/"
   xmlns:cc="http://creativecommons.org/ns#"
   xmlns:rdf="http://www.w3.org/1999/02/22-rdf-syntax-ns#"
   xmlns:svg="http://www.w3.org/2000/svg"
   xmlns="http://www.w3.org/2000/svg"
   xmlns:sodipodi="http://sodipodi.sourceforge.net/DTD/sodipodi-0.dtd"
   xmlns:inkscape="http://www.inkscape.org/namespaces/inkscape"
   width="256"
   height="256"
   viewBox="0 0 256 256"
   id="svg3344"
   version="1.1"
   inkscape:version="0.91 r13725"
   inkscape:export-xdpi="180"
   inkscape:export-ydpi="180"
   sodipodi:docname="album.svg">
  <defs
     id="defs3346" />
  <sodipodi:namedview
     id="base"
     pagecolor="#ffffff"
     bordercolor="#666666"
     borderopacity="1.0"
     inkscape:pageopacity="0.0"
     inkscape:pageshadow="2"
     inkscape:zoom="2.7760022"
     inkscape:cx="109.37382"
     inkscape:cy="105.10315"
     inkscape:document-units="px"
     inkscape:current-layer="g3372"
     showgrid="false"
     units="px"
     inkscape:window-width="1920"
     inkscape:window-height="1138"
     inkscape:window-x="-8"
     inkscape:window-y="-8"
     inkscape:window-maximized="1" />
  <metadata
     id="metadata3349">
    <rdf:RDF>
      <cc:Work
         rdf:about="">
        <dc:format>image/svg+xml</dc:format>
        <dc:type
           rdf:resource="http://purl.org/dc/dcmitype/StillImage" />
        <dc:title />
      </cc:Work>
    </rdf:RDF>
  </metadata>
  <g
     inkscape:groupmode="layer"
     id="layer2"
     inkscape:label="bg"
     style="display:inline;opacity:1">
    <rect
       style="fill:#ff6600"
       id="rect3420"
       width="256"
       height="256"
       x="0"
       y="0" />
  </g>
  <g
     inkscape:label="icon"
     inkscape:groupmode="layer"
     id="layer1"
     transform="translate(0,-796.36216)"
     style="display:inline;opacity:1">
    <g
       style="display:inline;opacity:1;fill:#ffffff"
       id="g3372"
       transform="matrix(7.2916667,0,0,7.2916667,40.5,836.86216)">
      <path
         id="path3362"
         d="M 0,0 24,0 24,24 0,24 Z"
         inkscape:connector-curvature="0"
         style="fill:none" />
      <path
         id="path3364"
         d="M 12,-1.0285715e-8 C 5.376,-1.0285715e-8 0,5.376 0,12 0,18.624 5.376,24 12,24 18.624,24 24,18.624 24,12 24,5.376 18.624,-1.0285715e-8 12,-1.0285715e-8 Z M 12,17.4 C 9.012,17.4 6.6,14.988 6.6,12 6.6,9.0120001 9.012,6.6 12,6.6 c 2.988,0 5.4,2.4120001 5.4,5.4 0,2.988 -2.412,5.4 -5.4,5.4 z m 0,-6.6 c -0.66,0 -1.2,0.54 -1.2,1.2 0,0.66 0.54,1.2 1.2,1.2 0.66,0 1.2,-0.54 1.2,-1.2 0,-0.66 -0.54,-1.2 -1.2,-1.2 z"
         inkscape:connector-curvature="0" />
    </g>
  </g>
</svg>
