<?xml version="1.0" encoding="UTF-8" standalone="no"?>
<!-- Created with Inkscape (http://www.inkscape.org/) -->

<svg
   xmlns:dc="http://purl.org/dc/elements/1.1/"
   xmlns:cc="http://creativecommons.org/ns#"
   xmlns:rdf="http://www.w3.org/1999/02/22-rdf-syntax-ns#"
   xmlns:svg="http://www.w3.org/2000/svg"
   xmlns="http://www.w3.org/2000/svg"
   xmlns:sodipodi="http://sodipodi.sourceforge.net/DTD/sodipodi-0.dtd"
   xmlns:inkscape="http://www.inkscape.org/namespaces/inkscape"
   width="256"
   height="256"
   viewBox="0 0 256 256"
   id="svg3344"
   version="1.1"
   inkscape:version="0.91 r13725"
   inkscape:export-filename="/home/tadly/Downloads/google music icons/pngs/browse-stations.png"
   inkscape:export-xdpi="90"
   inkscape:export-ydpi="90"
   sodipodi:docname="browse-stations.svg">
  <defs
     id="defs3346" />
  <sodipodi:namedview
     id="base"
     pagecolor="#ffffff"
     bordercolor="#666666"
     borderopacity="1.0"
     inkscape:pageopacity="0.0"
     inkscape:pageshadow="2"
     inkscape:zoom="2.56204"
     inkscape:cx="106.36502"
     inkscape:cy="128.46656"
     inkscape:document-units="px"
     inkscape:current-layer="layer2"
     showgrid="false"
     units="px"
     inkscape:window-width="2048"
     inkscape:window-height="1099"
     inkscape:window-x="0"
     inkscape:window-y="27"
     inkscape:window-maximized="1" />
  <metadata
     id="metadata3349">
    <rdf:RDF>
      <cc:Work
         rdf:about="">
        <dc:format>image/svg+xml</dc:format>
        <dc:type
           rdf:resource="http://purl.org/dc/dcmitype/StillImage" />
        <dc:title />
      </cc:Work>
    </rdf:RDF>
  </metadata>
  <g
     inkscape:groupmode="layer"
     id="layer2"
     inkscape:label="bg"
     style="display:inline;opacity:1">
    <rect
       style="fill:#ff6600"
       id="rect3420"
       width="256"
       height="256"
       x="0"
       y="0" />
  </g>
  <g
     inkscape:label="icon"
     inkscape:groupmode="layer"
     id="layer1"
     transform="translate(0,-796.36216)"
     style="display:inline;opacity:1">
    <g
       style="display:block;opacity:1;fill:#ffffff"
       id="g3444"
       transform="matrix(7.5017147,0,0,7.5017147,37.334276,837.12097)">
      <g
         id="g3424"
         transform="translate(0,3)"
         style="fill:#ffffff">
        <path
           id="path3426"
           d="m 12.086,5.63 c -1.381,0 -2.5,1.118 -2.5,2.5 0,1.381 1.119,2.5 2.5,2.5 1.381,0 2.5,-1.119 2.5,-2.5 0,-1.382 -1.119,-2.5 -2.5,-2.5"
           inkscape:connector-curvature="0"
           style="fill:#ffffff" />
        <path
           id="path3428"
           d="M 7.507,14.434 C 7.135,14.183 6.787,13.896 6.472,13.58 6.157,13.266 5.87,12.917 5.618,12.544 5.367,12.174 5.15,11.775 4.972,11.356 4.793,10.929 4.655,10.486 4.564,10.038 4.47,9.579 4.422,9.105 4.422,8.63 4.422,8.155 4.47,7.68 4.564,7.219 4.655,6.772 4.793,6.329 4.972,5.905 5.148,5.489 5.365,5.089 5.618,4.715 5.868,4.344 6.155,3.996 6.472,3.68 6.791,3.361 7.14,3.073 7.509,2.824 L 8.625,4.485 C 8.363,4.66 8.114,4.866 7.886,5.094 7.66,5.32 7.454,5.57 7.275,5.834 7.094,6.102 6.94,6.387 6.814,6.684 6.687,6.986 6.589,7.301 6.524,7.619 6.456,7.95 6.422,8.289 6.422,8.63 c 0,0.34 0.034,0.679 0.102,1.008 0.065,0.32 0.163,0.636 0.29,0.94 0.127,0.296 0.281,0.581 0.46,0.845 0.182,0.269 0.387,0.518 0.612,0.743 0.225,0.226 0.475,0.431 0.741,0.611 l -1.12,1.657"
           inkscape:connector-curvature="0"
           style="fill:#ffffff" />
        <path
           id="path3430"
           d="M 5.271,17.751 C 4.688,17.357 4.14,16.905 3.643,16.408 3.145,15.91 2.693,15.363 2.301,14.781 1.903,14.193 1.562,13.564 1.286,12.912 1.006,12.249 0.79,11.554 0.646,10.846 0.497,10.121 0.422,9.376 0.422,8.63 0.422,7.883 0.497,7.138 0.646,6.413 0.791,5.704 1.006,5.009 1.287,4.347 1.562,3.695 1.903,3.067 2.301,2.478 2.696,1.894 3.147,1.347 3.643,0.851 4.14,0.354 4.688,-0.098 5.271,-0.492 L 6.39,1.166 C 5.913,1.487 5.464,1.857 5.057,2.265 4.651,2.671 4.281,3.119 3.958,3.598 3.633,4.079 3.354,4.593 3.129,5.126 2.9,5.667 2.723,6.234 2.605,6.815 2.484,7.406 2.422,8.018 2.422,8.63 c 0,0.611 0.062,1.223 0.183,1.815 0.118,0.579 0.295,1.146 0.523,1.688 0.226,0.533 0.505,1.047 0.83,1.529 0.321,0.476 0.692,0.924 1.099,1.332 0.407,0.408 0.856,0.778 1.333,1.099 l -1.119,1.658"
           inkscape:connector-curvature="0"
           style="fill:#ffffff" />
        <path
           id="path3432"
           d="m 16.665,14.434 -1.12,-1.657 c 0.266,-0.18 0.516,-0.385 0.741,-0.611 0.225,-0.225 0.43,-0.474 0.611,-0.741 0.18,-0.266 0.335,-0.551 0.461,-0.849 0.127,-0.302 0.225,-0.618 0.29,-0.936 C 17.716,9.309 17.75,8.97 17.75,8.63 17.75,8.289 17.716,7.95 17.648,7.621 17.583,7.301 17.485,6.986 17.358,6.683 17.232,6.387 17.078,6.102 16.897,5.834 16.718,5.57 16.512,5.32 16.286,5.094 16.058,4.866 15.809,4.66 15.547,4.485 l 1.116,-1.661 c 0.369,0.249 0.718,0.537 1.037,0.856 0.317,0.316 0.604,0.664 0.854,1.035 0.253,0.374 0.471,0.774 0.646,1.189 0.18,0.425 0.317,0.868 0.408,1.317 0.094,0.459 0.142,0.934 0.142,1.409 0,0.475 -0.048,0.949 -0.142,1.41 -0.091,0.446 -0.228,0.889 -0.408,1.314 -0.177,0.421 -0.395,0.82 -0.647,1.192 -0.251,0.371 -0.538,0.72 -0.853,1.034 -0.315,0.316 -0.663,0.603 -1.035,0.854"
           inkscape:connector-curvature="0"
           style="fill:#ffffff" />
        <path
           id="path3434"
           d="m 18.901,17.751 -1.119,-1.658 c 0.477,-0.321 0.926,-0.691 1.333,-1.099 0.408,-0.408 0.778,-0.856 1.099,-1.332 0.325,-0.482 0.604,-0.996 0.829,-1.529 0.23,-0.542 0.406,-1.109 0.525,-1.688 C 21.689,9.853 21.75,9.241 21.75,8.63 21.75,8.018 21.689,7.406 21.568,6.814 21.449,6.234 21.273,5.667 21.044,5.126 20.818,4.593 20.539,4.079 20.214,3.597 19.891,3.119 19.521,2.671 19.115,2.265 18.708,1.857 18.259,1.487 17.782,1.166 l 1.119,-1.658 c 0.583,0.394 1.131,0.846 1.628,1.343 0.496,0.496 0.947,1.043 1.342,1.626 0.398,0.59 0.739,1.218 1.015,1.87 0.28,0.662 0.495,1.357 0.64,2.065 0.149,0.726 0.224,1.471 0.224,2.218 0,0.746 -0.075,1.491 -0.224,2.216 -0.144,0.708 -0.36,1.403 -0.641,2.066 -0.275,0.652 -0.616,1.281 -1.014,1.869 -0.392,0.582 -0.844,1.129 -1.342,1.627 -0.497,0.497 -1.045,0.949 -1.628,1.343"
           inkscape:connector-curvature="0"
           style="fill:#ffffff" />
        <path
           id="path3436"
           d="m 11.086,9.973 2,0 0,5.657 -2,0 0,-5.657 z"
           inkscape:connector-curvature="0"
           style="fill:#ffffff" />
      </g>
    </g>
  </g>
</svg>
