<?xml version="1.0" encoding="UTF-8" standalone="no"?>
<!-- Created with Inkscape (http://www.inkscape.org/) -->

<svg
   xmlns:dc="http://purl.org/dc/elements/1.1/"
   xmlns:cc="http://creativecommons.org/ns#"
   xmlns:rdf="http://www.w3.org/1999/02/22-rdf-syntax-ns#"
   xmlns:svg="http://www.w3.org/2000/svg"
   xmlns="http://www.w3.org/2000/svg"
   xmlns:sodipodi="http://sodipodi.sourceforge.net/DTD/sodipodi-0.dtd"
   xmlns:inkscape="http://www.inkscape.org/namespaces/inkscape"
   width="256"
   height="256"
   viewBox="0 0 256 256"
   id="svg3344"
   version="1.1"
   inkscape:version="0.91 r13725"
   inkscape:export-xdpi="180"
   inkscape:export-ydpi="180"
   sodipodi:docname="thumb_up.svg">
  <defs
     id="defs3346" />
  <sodipodi:namedview
     id="base"
     pagecolor="#ffffff"
     bordercolor="#666666"
     borderopacity="1.0"
     inkscape:pageopacity="0.0"
     inkscape:pageshadow="2"
     inkscape:zoom="3.5923152"
     inkscape:cx="97.722565"
     inkscape:cy="170.92492"
     inkscape:document-units="px"
     inkscape:current-layer="layer1"
     showgrid="false"
     units="px"
     inkscape:window-width="2048"
     inkscape:window-height="1097"
     inkscape:window-x="0"
     inkscape:window-y="27"
     inkscape:window-maximized="1" />
  <metadata
     id="metadata3349">
    <rdf:RDF>
      <cc:Work
         rdf:about="">
        <dc:format>image/svg+xml</dc:format>
        <dc:type
           rdf:resource="http://purl.org/dc/dcmitype/StillImage" />
        <dc:title />
      </cc:Work>
    </rdf:RDF>
  </metadata>
  <g
     inkscape:groupmode="layer"
     id="layer2"
     inkscape:label="bg"
     style="display:inline;opacity:1">
    <rect
       style="fill:#ff6600"
       id="rect3420"
       width="256"
       height="256"
       x="0"
       y="0" />
  </g>
  <g
     inkscape:label="icon"
     inkscape:groupmode="layer"
     id="layer1"
     transform="translate(0,-796.36216)"
     style="display:inline;opacity:1">
    <g
       style="display:inline;opacity:1;fill:#ffffff"
       id="g3350"
       transform="matrix(7.2916667,0,0,7.2916667,40.5,836.86216)">
      <path
         id="path3340"
         d="M 0,0 24,0 24,24 0,24 Z"
         inkscape:connector-curvature="0"
         style="fill:none" />
      <path
         id="path3342"
         d="M 1,21 5,21 5,9 1,9 1,21 Z M 23,10 C 23,8.9 22.1,8 21,8 L 14.69,8 15.64,3.43 15.67,3.11 C 15.67,2.7 15.5,2.32 15.23,2.05 L 14.17,1 7.59,7.59 C 7.22,7.95 7,8.45 7,9 l 0,10 c 0,1.1 0.9,2 2,2 l 9,0 c 0.83,0 1.54,-0.5 1.84,-1.22 l 3.02,-7.05 C 22.95,12.5 23,12.26 23,12 L 23,10.09 22.99,10.08 23,10 Z"
         inkscape:connector-curvature="0" />
    </g>
  </g>
</svg>
